HIERARCHY
ROOT Hips
{
	OFFSET 228.634003 92.561920 -263.051910
	CHANNELS 6 Xposition Yposition Zposition Zrotation Yrotation Xrotation 
	JOINT LeftUpLeg
	{
		OFFSET 0.103458 1.857820 10.548502
		CHANNELS 3 Zrotation Yrotation Xrotation
		JOINT LeftLeg
		{
			OFFSET 43.500000 -0.000023 -0.000011
			CHANNELS 3 Zrotation Yrotation Xrotation
			JOINT LeftFoot
			{
				OFFSET 42.372192 0.000038 0.000002
				CHANNELS 3 Zrotation Yrotation Xrotation
				JOINT LeftToe
				{
					OFFSET 17.299992 -0.000004 0.000006
					CHANNELS 3 Zrotation Yrotation Xrotation
					End Site
					{
						OFFSET 0.000000 0.000000 0.000000
					}
				}
			}
		}
	}
	JOINT RightUpLeg
	{
		OFFSET 0.103461 1.857814 -10.548508
		CHANNELS 3 Zrotation Yrotation Xrotation
		JOINT RightLeg
		{
			OFFSET 43.500042 -0.000015 0.000008
			CHANNELS 3 Zrotation Yrotation Xrotation
			JOINT RightFoot
			{
				OFFSET 42.372253 0.000008 0.000006
				CHANNELS 3 Zrotation Yrotation Xrotation
				JOINT RightToe
				{
					OFFSET 17.299973 -0.000014 0.000011
					CHANNELS 3 Zrotation Yrotation Xrotation
					End Site
					{
						OFFSET 0.000000 0.000000 0.000000
					}
				}
			}
		}
	}
	JOINT Spine
	{
		OFFSET 6.901966 -2.603737 -0.000007
		CHANNELS 3 Zrotation Yrotation Xrotation
		JOINT Spine1
		{
			OFFSET 12.588102 0.000017 0.000001
			CHANNELS 3 Zrotation Yrotation Xrotation
			JOINT Spine2
			{
				OFFSET 12.343197 -0.000013 0.000000
				CHANNELS 3 Zrotation Yrotation Xrotation
				JOINT Neck
				{
					OFFSET 25.832905 -0.000008 0.000000
					CHANNELS 3 Zrotation Yrotation Xrotation
					JOINT Head
					{
						OFFSET 11.766610 0.000009 -0.000002
						CHANNELS 3 Zrotation Yrotation Xrotation
						End Site
						{
							OFFSET 0.000000 0.000000 0.000000
						}
					}
				}
				JOINT LeftShoulder
				{
					OFFSET 19.745903 -1.480377 6.000115
					CHANNELS 3 Zrotation Yrotation Xrotation
					JOINT LeftArm
					{
						OFFSET 11.284125 -0.000014 -0.000024
						CHANNELS 3 Zrotation Yrotation Xrotation
						JOINT LeftForeArm
						{
							OFFSET 33.000046 -0.000012 0.000029
							CHANNELS 3 Zrotation Yrotation Xrotation
							JOINT LeftHand
							{
								OFFSET 25.199989 0.000034 0.000012
								CHANNELS 3 Zrotation Yrotation Xrotation
								End Site
								{
									OFFSET 0.000000 0.000000 0.000000
								}
							}
						}
					}
				}
				JOINT RightShoulder
				{
					OFFSET 19.746098 -1.480362 -6.000071
					CHANNELS 3 Zrotation Yrotation Xrotation
					JOINT RightArm
					{
						OFFSET 11.284137 -0.000006 -0.000008
						CHANNELS 3 Zrotation Yrotation Xrotation
						JOINT RightForeArm
						{
							OFFSET 33.000095 0.000017 0.000000
							CHANNELS 3 Zrotation Yrotation Xrotation
							JOINT RightHand
							{
								OFFSET 25.199778 0.000144 0.000423
								CHANNELS 3 Zrotation Yrotation Xrotation
								End Site
								{
									OFFSET 0.000000 0.000000 0.000000
								}
							}
						}
					}
				}
			}
		}
	}
}
MOTION
Frames: 7
Frame Time: 0.033333
2.939191 63.728119 -443.942688 98.115695 51.677191 -54.683287 74.839995 -9.417301 145.201052 -88.890841 -1.511768 -8.892109 90.888836 6.141407 0.277335 21.454555 0.003092 0.000001 140.272401 20.699903 171.024098 -86.094862 -1.492249 11.303685 67.766671 -5.400222 7.292461 21.454558 -0.003109 -0.000020 18.376605 -1.905919 -2.183627 26.819701 -3.255218 -4.750771 26.502210 -3.283696 -4.731056 -8.937760 -22.852894 -5.386385 -25.725962 12.720857 -17.347332 33.559581 -71.913498 145.331413 -66.339073 -26.527589 -21.123987 -35.286151 -18.330549 1.556914 3.767312 -14.947778 36.983746 81.254758 73.709790 -98.374976 -35.683097 7.056215 -1.262463 -23.601732 14.007738 -1.083200 -5.188564 49.103934 -16.155030 
2.284445 66.997124 -443.976501 100.920409 51.222437 -53.828608 76.820702 -7.914397 148.641582 -83.724329 -3.285401 -9.156549 89.542079 6.406905 0.413579 21.454555 0.003095 -0.000000 142.108834 18.092193 171.206437 -78.677229 -0.493094 13.980530 66.309423 -6.766309 8.912602 21.454553 -0.003108 -0.000015 18.074781 -2.352697 -2.323975 26.247138 -4.118242 -5.123824 25.929515 -4.148934 -5.098895 -11.722812 -23.350354 -3.871841 -23.944610 13.102623 -16.399481 34.321909 -70.653205 144.634611 -66.244550 -29.146709 -21.579341 -33.881580 -19.838027 1.621724 13.302021 -2.067790 28.774767 80.635909 73.304411 -99.017792 -38.188940 7.723796 -4.803600 -24.612518 14.895102 -1.154933 3.663259 37.425537 -10.154914 
1.819137 70.079857 -444.261414 104.256916 49.603163 -52.498542 79.432703 -6.833901 152.288602 -78.748290 -4.446853 -9.267989 88.172626 6.584076 0.734902 21.454553 0.003090 -0.000000 145.021800 15.357995 171.941461 -70.791482 0.715039 15.619053 64.163726 -7.439923 10.182600 21.454558 -0.003107 -0.000019 17.763922 -2.648870 -2.399163 25.647581 -4.701288 -5.330002 25.329792 -4.733215 -5.301551 -12.966955 -23.025444 -2.865649 -23.462810 12.791965 -15.330908 31.148808 -69.986606 147.738317 -68.418381 -31.203207 -25.249167 -29.171161 -16.910326 1.336098 17.470114 13.150967 21.113855 79.282281 72.509958 -100.414593 -40.637484 7.598457 -3.009236 -27.264322 17.325449 -1.353398 7.742959 19.281173 -15.294450 
1.462751 73.018173 -444.705902 107.307709 47.742271 -51.188942 82.433396 -6.021397 155.719762 -73.703212 -5.418845 -9.290486 86.750362 6.716209 1.123784 21.454553 0.003090 0.000000 147.876915 13.082903 173.597673 -63.260454 0.998201 16.203633 60.668302 -7.073319 11.618714 21.454555 -0.003107 -0.000021 17.370786 -2.750650 -2.192263 24.860398 -4.966885 -4.928889 24.542261 -4.996393 -4.898820 -12.230910 -23.708179 -2.523076 -24.211252 12.419792 -14.990182 24.947334 -69.883600 153.755700 -71.685506 -28.811473 -23.809088 -29.853954 -15.583577 1.264289 12.827193 6.578138 27.671774 77.766765 71.940094 -101.949535 -43.173882 7.850473 -0.212168 -27.937690 16.754060 -1.329137 12.241674 4.883973 -19.787254 
0.947434 75.951767 -445.438904 109.137223 46.184602 -50.263871 86.287508 -4.981294 158.126761 -68.208906 -6.205125 -9.202906 85.170649 6.776081 1.413399 21.454548 0.003089 -0.000000 150.441938 12.337599 174.670244 -56.528886 2.101173 15.630729 56.443372 -6.365473 11.514469 21.454555 -0.003106 -0.000017 16.923389 -2.781692 -1.679713 23.947149 -5.155986 -3.902852 23.628430 -5.179320 -3.871615 -8.141859 -26.219141 -3.274772 -26.835209 13.395915 -16.416129 32.872403 -70.083915 146.057435 -72.588204 -24.780901 -15.581209 -33.625424 -18.035178 1.499928 4.717502 -7.234641 36.260617 75.369642 72.028375 -104.295814 -44.964187 6.438674 -2.380673 -26.517110 15.236395 -1.207565 13.823005 3.505035 -18.668830 
0.659810 78.440063 -446.250793 110.148719 44.748159 -49.324836 90.128950 -3.683393 160.462549 -62.957842 -6.973248 -9.290218 83.386467 6.902765 1.365371 21.454550 0.003088 0.000000 152.227937 12.214994 176.905957 -52.628257 2.575671 12.393728 58.750378 -4.616861 10.447563 21.454548 -0.003110 -0.000014 16.612968 -2.925919 -1.267091 23.316239 -5.536716 -3.101780 22.997011 -5.555208 -3.068214 -8.650146 -24.547498 -3.229712 -26.361743 12.412143 -15.506271 43.132669 -72.621788 135.903197 -74.311160 -20.922430 -11.999991 -39.957696 -19.820584 1.771141 0.417606 -7.287869 38.743043 75.897124 72.944788 -103.707052 -46.099470 4.071918 -3.805511 -28.025603 16.911898 -1.340781 11.818105 6.417627 -25.674034 
0.485340 80.679703 -447.204895 110.826608 42.552072 -48.548886 94.560445 -2.765399 162.314583 -57.979946 -7.022449 -9.161783 81.679179 6.859190 1.325635 21.454550 0.003092 0.000000 152.945585 11.120995 177.820341 -51.868067 3.626543 10.334010 62.095039 -4.036231 8.857408 21.454553 -0.003111 -0.000028 16.441027 -2.971229 -0.855734 22.955520 -5.713697 -2.287257 22.635961 -5.727267 -2.252603 -9.955631 -22.589034 -2.814982 -25.559729 11.090429 -14.098199 55.585012 -75.297590 123.487662 -74.411052 -16.578688 -11.956344 -47.678214 -19.249884 1.959182 1.852269 -3.666381 37.841362 77.347712 73.684982 -102.223234 -46.636586 1.831407 -4.130189 -31.729630 17.907298 -1.477089 10.681977 6.341193 -27.872692 
